<?xml version="1.0" encoding="UTF-8"?>
<svg xmlns="http://www.w3.org/2000/svg" xmlns:xlink="http://www.w3.org/1999/xlink" version="1.1" id="Layer_1" x="0px" y="0px" width="1366px" height="768px" viewBox="0 0 1366 768" xml:space="preserve">
<path d="M1211.2,698.2c0.1-0.1,0.1-0.2,0.2-0.2c0.1-0.1,0.1-0.2,0.2-0.2c0.1-0.1,0.2-0.3,0.3-0.4c0.1-0.1,0.2-0.3,0.2-0.4  c0.1-0.1,0.1-0.3,0.2-0.4s0.1-0.3,0.2-0.4c0-0.1,0.1-0.2,0.1-0.2c0-0.1,0-0.1,0.1-0.2c0.1-0.2,0.1-0.3,0.2-0.5  c0-0.1,0.1-0.3,0.1-0.4c0,0,0-0.1,0-0.1c0-0.1,0-0.1,0.1-0.2c0-0.1,0-0.1,0-0.2c0-0.2,0-0.3,0.1-0.5c0-0.2,0.1-0.3,0.1-0.5  c0,0,0,0,0,0c0,0,0-0.1,0-0.1c0-0.3,0-0.5,0-0.8c0,0,0,0,0,0c0-81.6-14-160.9-41.5-235.5c-26.6-72.1-64.8-136.9-113.3-192.5  c-48.7-55.7-105.4-99.5-168.5-130.1C833.2,106.8,773.6,91,712.1,87.3l-22.9-19.1c-3.6-3-8.8-3-12.4,0l-22.9,19.1  c-61.4,3.8-121.1,19.5-177.7,46.9c-63.2,30.6-119.9,74.4-168.5,130.1C259.1,320,221,384.8,194.3,456.9  c-27.5,74.6-41.5,153.8-41.5,235.5c0,0,0,0,0,0c0,0.3,0,0.6,0,0.8c0,0,0,0.1,0,0.1c0,0,0,0,0,0.1c0,0.1,0,0.3,0.1,0.4  c0,0.2,0,0.4,0.1,0.5c0,0.1,0,0.1,0,0.2c0,0.1,0,0.2,0.1,0.2c0,0,0,0,0,0c0,0.2,0.1,0.3,0.1,0.5c0,0.2,0.1,0.3,0.2,0.5c0,0,0,0,0,0  c0,0.1,0,0.1,0.1,0.2c0,0.1,0.1,0.2,0.1,0.2c0.1,0.1,0.1,0.3,0.2,0.4c0.1,0.2,0.1,0.3,0.2,0.5c0.1,0.1,0.1,0.2,0.2,0.4  c0.1,0.1,0.2,0.3,0.3,0.4c0.1,0.1,0.1,0.2,0.2,0.2c0.1,0.1,0.1,0.2,0.2,0.2c0.1,0.1,0.1,0.2,0.2,0.3c0.1,0.2,0.3,0.3,0.4,0.4  c0.1,0.1,0.1,0.1,0.2,0.2c0,0,0,0.1,0.1,0.1c0,0,0,0,0,0c0,0,0.1,0.1,0.1,0.1c0.2,0.2,0.4,0.4,0.6,0.5c0,0,0.1,0,0.1,0.1  c0.1,0,0.1,0.1,0.2,0.1c0,0,0.1,0,0.1,0.1c0.1,0.1,0.3,0.2,0.4,0.3c0.1,0.1,0.2,0.1,0.3,0.2c0.1,0,0.2,0.1,0.2,0.1  c0.1,0.1,0.2,0.1,0.3,0.2c0.1,0.1,0.3,0.1,0.4,0.2c0.1,0.1,0.3,0.1,0.4,0.2c0.1,0.1,0.3,0.1,0.4,0.2c0.2,0.1,0.3,0.1,0.5,0.2  c0.1,0,0.1,0,0.2,0c0.1,0,0.1,0,0.2,0c0,0,0,0,0.1,0c0.2,0,0.3,0.1,0.5,0.1c0.1,0,0.3,0,0.4,0.1c0.1,0,0.2,0,0.3,0  c0.1,0,0.2,0,0.3,0c0.2,0,0.5,0,0.7,0c0.1,0,0.1,0,0.2,0h303.3c5.4,0,9.7-4.4,9.7-9.7s-4.4-9.7-9.7-9.7h-15.1v-49.9L683,467.9  l232.2,164.8v49.9h-15.1c-5.4,0-9.7,4.4-9.7,9.7s4.4,9.7,9.7,9.7h303.3c0.3,0,0.6,0,1,0c0.1,0,0.2,0,0.2,0c0.1,0,0.2,0,0.3,0  c0.1,0,0.3,0,0.4-0.1c0.2,0,0.3-0.1,0.5-0.1c0,0,0.1,0,0.1,0c0.1,0,0.1,0,0.2,0c0.1,0,0.1,0,0.2,0c0.2,0,0.3-0.1,0.5-0.2  c0.1-0.1,0.3-0.1,0.4-0.2c0.1-0.1,0.3-0.1,0.4-0.2c0.1-0.1,0.3-0.1,0.4-0.2c0.1-0.1,0.2-0.1,0.3-0.2c0.1,0,0.1-0.1,0.2-0.1  c0.1-0.1,0.2-0.1,0.3-0.2c0.1-0.1,0.3-0.2,0.4-0.3c0,0,0.1-0.1,0.1-0.1c0.1,0,0.1-0.1,0.2-0.1c0,0,0.1,0,0.1-0.1  c0.2-0.2,0.4-0.4,0.6-0.5c0,0,0.1-0.1,0.1-0.1c0,0,0,0,0,0c0,0,0-0.1,0.1-0.1c0.1-0.1,0.1-0.1,0.2-0.2c0.1-0.1,0.3-0.3,0.4-0.5  C1211,698.4,1211.1,698.3,1211.2,698.2z M683,105.8c7.3,0,14.5,0.2,21.7,0.5l231.2,192.3l208.6,320.8L689.9,163.8  c-1.8-1.8-4.3-2.9-6.9-2.9s-5.1,1-6.9,2.9L221.6,619.4l208.6-320.8l231.2-192.3C668.5,106,675.7,105.8,683,105.8z M1192.8,658.2  L951.3,286.8c-0.5-0.8-1.2-1.6-1.9-2.2L738.6,109.3C984.5,140,1178.5,371.9,1192.8,658.2z M627.4,109.3L416.6,284.6  c-0.8,0.6-1.4,1.4-1.9,2.2L173.2,658.2C187.5,371.9,381.5,140,627.4,109.3z M688.6,448c-3.4-2.4-7.9-2.4-11.3,0L450.8,608.8v-63.6  L683,381l232.2,164.2v63.6L688.6,448z M930.5,532.2l-241.9-171c-3.4-2.4-7.9-2.4-11.2,0l-241.9,171c-2.6,1.8-4.1,4.8-4.1,7.9v142.4  H186l497-498.2l497,498.2H934.6V540.2C934.6,537,933.1,534.1,930.5,532.2z"></path>
</svg>
